<svg xmlns="http://www.w3.org/2000/svg" version="1.1" style="font-family: 'Helvetica Neue', Helvetica, Arial, sans-serif; font-size: 18px; background-color: white; text-rendering: optimizeLegibility; -webkit-font-smoothing: antialiased;" width="850" height="600"><g class="ChartTab"><g class="HeaderView"><g opacity="0.8" transform="translate(770, 15) scale(0.31)"><a xmlns:xlink="http://www.w3.org/1999/xlink" xlink:href="https://ourworldindata.org" target="_blank"><g><rect x="0" y="0" fill="#1B2543" width="211.2" height="130.1"/><rect x="0" y="112.2" fill="#E63912" width="211.2" height="17.9"/><g><rect x="1.2" y="12.3" fill="none" width="210.2" height="99.2"/><path fill="#FFFFFF" d="M37.8,32.2c0,12.7-7.7,19.4-17.1,19.4c-9.7,0-16.6-7.5-16.6-18.7c0-11.7,7.3-19.3,17.1-19.3 C31.3,13.7,37.8,21.3,37.8,32.2z M9.2,32.8c0,7.9,4.3,14.9,11.8,14.9c7.5,0,11.8-6.9,11.8-15.3c0-7.3-3.8-14.9-11.8-14.9 C13.1,17.5,9.2,24.8,9.2,32.8z"/><path fill="#FFFFFF" d="M62.7,43.8c0,2.7,0.1,5.1,0.2,7.2h-4.3l-0.3-4.3h-0.1c-1.3,2.1-4,4.9-8.8,4.9c-4.2,0-9.1-2.3-9.1-11.6 V24.6h4.8v14.6c0,5,1.5,8.4,5.9,8.4c3.2,0,5.5-2.2,6.3-4.4c0.3-0.7,0.4-1.6,0.4-2.5V24.6h4.8V43.8z"/><path fill="#FFFFFF" d="M67.3,32.8c0-3.1-0.1-5.8-0.2-8.2h4.2l0.2,5.2h0.2c1.2-3.5,4.1-5.8,7.3-5.8c0.5,0,0.9,0.1,1.4,0.2v4.5 c-0.5-0.1-1-0.2-1.6-0.2c-3.4,0-5.8,2.6-6.5,6.2c-0.1,0.7-0.2,1.4-0.2,2.2V51h-4.8V32.8z"/><path fill="#FFFFFF" d="M95.4,51l-9.4-36.8h5l4.4,18.6c1.1,4.6,2.1,9.2,2.7,12.7h0.1c0.6-3.7,1.8-8,3-12.8l4.9-18.5h5l4.5,18.7 c1,4.4,2,8.7,2.6,12.6h0.1c0.8-4,1.8-8.1,3-12.7l4.9-18.5h4.9L120.6,51h-5L111,31.9c-1.1-4.7-1.9-8.3-2.4-12h-0.1 c-0.7,3.7-1.5,7.3-2.8,12L100.4,51H95.4z"/><path fill="#FFFFFF" d="M154.9,37.6c0,9.8-6.8,14-13.2,14c-7.2,0-12.7-5.2-12.7-13.6c0-8.8,5.8-14,13.1-14 C149.8,24,154.9,29.5,154.9,37.6z M133.9,37.9c0,5.8,3.3,10.1,8,10.1c4.6,0,8-4.3,8-10.3c0-4.5-2.2-10.1-7.9-10.1 C136.3,27.6,133.9,32.8,133.9,37.9z"/><path fill="#FFFFFF" d="M158.2,32.8c0-3.1-0.1-5.8-0.2-8.2h4.2l0.2,5.2h0.2c1.2-3.5,4.1-5.8,7.3-5.8c0.5,0,0.9,0.1,1.4,0.2v4.5 c-0.5-0.1-1-0.2-1.6-0.2c-3.4,0-5.8,2.6-6.5,6.2c-0.1,0.7-0.2,1.4-0.2,2.2V51h-4.8V32.8z"/><path fill="#FFFFFF" d="M173.5,12.3h4.8V51h-4.8V12.3z"/><path fill="#FFFFFF" d="M206.5,12.3v31.9c0,2.3,0.1,5,0.2,6.8h-4.3l-0.2-4.6H202c-1.5,2.9-4.7,5.2-9,5.2 c-6.4,0-11.3-5.4-11.3-13.4c-0.1-8.8,5.4-14.2,11.9-14.2c4,0,6.8,1.9,8,4h0.1V12.3H206.5z M201.7,35.4c0-0.6-0.1-1.4-0.2-2 c-0.7-3.1-3.3-5.6-6.9-5.6c-5,0-7.9,4.4-7.9,10.2c0,5.3,2.6,9.8,7.8,9.8c3.2,0,6.2-2.1,7.1-5.7c0.2-0.7,0.2-1.3,0.2-2.1V35.4z"/><path fill="#FFFFFF" d="M42.8,64c0.1,1.6-1.1,2.9-3.1,2.9c-1.7,0-2.9-1.3-2.9-2.9c0-1.7,1.3-3,3-3C41.7,61,42.8,62.3,42.8,64z M37.4,97.8V71.4h4.8v26.4H37.4z"/><path fill="#FFFFFF" d="M47.5,78.6c0-2.7-0.1-5-0.2-7.1h4.3l0.3,4.4h0.1c1.3-2.5,4.4-5,8.8-5c3.7,0,9.4,2.2,9.4,11.2v15.8h-4.8 V82.6c0-4.3-1.6-7.8-6.1-7.8c-3.2,0-5.6,2.2-6.5,4.9c-0.2,0.6-0.3,1.4-0.3,2.2v15.9h-4.8V78.6z"/><path fill="#FFFFFF" d="M84,61.6c2.9-0.4,6.3-0.8,10.1-0.8c6.8,0,11.7,1.6,14.9,4.6c3.3,3,5.2,7.3,5.2,13.2c0,6-1.9,10.9-5.3,14.3 c-3.4,3.4-9.1,5.3-16.3,5.3c-3.4,0-6.2-0.2-8.6-0.4V61.6z M88.8,94.1c1.2,0.2,3,0.3,4.8,0.3c10.2,0,15.7-5.7,15.7-15.6 c0.1-8.7-4.9-14.2-14.9-14.2c-2.5,0-4.3,0.2-5.6,0.5V94.1z"/><path fill="#FFFFFF" d="M132.1,97.8l-0.4-3.3h-0.2c-1.5,2.1-4.3,3.9-8.1,3.9c-5.4,0-8.1-3.8-8.1-7.6c0-6.4,5.7-9.9,15.9-9.8v-0.5 c0-2.2-0.6-6.1-6-6.1c-2.5,0-5,0.8-6.9,2l-1.1-3.2c2.2-1.4,5.4-2.3,8.7-2.3c8.1,0,10.1,5.5,10.1,10.8v9.9c0,2.3,0.1,4.5,0.4,6.3 H132.1z M131.4,84.4c-5.3-0.1-11.2,0.8-11.2,5.9c0,3.1,2.1,4.6,4.5,4.6c3.4,0,5.6-2.2,6.4-4.4c0.2-0.5,0.3-1,0.3-1.5V84.4z"/><path fill="#FFFFFF" d="M146.6,63.9v7.6h6.9v3.7h-6.9v14.2c0,3.3,0.9,5.1,3.6,5.1c1.3,0,2.2-0.2,2.8-0.3l0.2,3.6 c-0.9,0.4-2.4,0.7-4.3,0.7c-2.2,0-4-0.7-5.2-2c-1.4-1.4-1.9-3.8-1.9-6.9V75.1h-4.1v-3.7h4.1v-6.3L146.6,63.9z"/><path fill="#FFFFFF" d="M171.4,97.8l-0.4-3.3h-0.2c-1.5,2.1-4.3,3.9-8.1,3.9c-5.4,0-8.1-3.8-8.1-7.6c0-6.4,5.7-9.9,15.9-9.8v-0.5 c0-2.2-0.6-6.1-6-6.1c-2.5,0-5,0.8-6.9,2l-1.1-3.2c2.2-1.4,5.4-2.3,8.7-2.3c8.1,0,10.1,5.5,10.1,10.8v9.9c0,2.3,0.1,4.5,0.4,6.3 H171.4z M170.7,84.4c-5.3-0.1-11.2,0.8-11.2,5.9c0,3.1,2.1,4.6,4.5,4.6c3.4,0,5.6-2.2,6.4-4.4c0.2-0.5,0.3-1,0.3-1.5V84.4z"/></g></g></a></g><a href="https://ourworldindata.org/grapher/long-term-cereal-yields-in-the-united-kingdom" target="_blank"><text font-size="27.00" x="15.0" y="36.6" fill="#555"><tspan x="15" y="36.6">Long-term cereal yields in the United Kingdom</tspan></text></a><text font-size="14.40" x="15.0" y="55.5" fill="#666"><tspan x="15" y="55.519999999999996">Average agricultural yields in key crops in the United Kingdom from 1270-2014, measured in tonnes per hectare.</tspan></text></g><g class="LineChart"><defs><clipPath id="boundsClip-225"><rect x="50.824" y="0" width="830" height="956.2"></rect></clipPath></defs><g class="AxisBoxView"><g class="HorizontalAxis"><text x="60.8" y="556.5" fill="#666" text-anchor="middle" font-size="16.2">1270</text><text x="184.4" y="556.5" fill="#666" text-anchor="middle" font-size="16.2">1400</text><text x="279.5" y="556.5" fill="#666" text-anchor="middle" font-size="16.2">1500</text><text x="374.6" y="556.5" fill="#666" text-anchor="middle" font-size="16.2">1600</text><text x="469.7" y="556.5" fill="#666" text-anchor="middle" font-size="16.2">1700</text><text x="564.8" y="556.5" fill="#666" text-anchor="middle" font-size="16.2">1800</text><text x="659.8" y="556.5" fill="#666" text-anchor="middle" font-size="16.2">1900</text><text x="768.2" y="556.5" fill="#666" text-anchor="middle" font-size="16.2">2014</text></g><g class="VerticalAxis"><text x="55.82" y="535.3" fill="#666" dominant-baseline="middle" text-anchor="end" font-size="16.2">0 t/ha</text><text x="55.82" y="428.8" fill="#666" dominant-baseline="middle" text-anchor="end" font-size="16.2">2 t/ha</text><text x="55.82" y="322.2" fill="#666" dominant-baseline="middle" text-anchor="end" font-size="16.2">4 t/ha</text><text x="55.82" y="215.7" fill="#666" dominant-baseline="middle" text-anchor="end" font-size="16.2">6 t/ha</text><text x="55.82" y="109.2" fill="#666" dominant-baseline="middle" text-anchor="end" font-size="16.2">8 t/ha</text></g><g class="AxisGridLines"><line x1="60.82" y1="535.3" x2="768.24" y2="535.3" stroke="#ccc"></line><line x1="60.82" y1="428.8" x2="768.24" y2="428.8" stroke="#ddd" stroke-dasharray="3,2"></line><line x1="60.82" y1="322.2" x2="768.24" y2="322.2" stroke="#ddd" stroke-dasharray="3,2"></line><line x1="60.82" y1="215.7" x2="768.24" y2="215.7" stroke="#ddd" stroke-dasharray="3,2"></line><line x1="60.82" y1="109.2" x2="768.24" y2="109.2" stroke="#ddd" stroke-dasharray="3,2"></line></g><g class="AxisGridLines"><line x1="89.3" y1="535.30" x2="89.3" y2="78.40" stroke="#ddd" stroke-dasharray="3,2"></line><line x1="184.4" y1="535.30" x2="184.4" y2="78.40" stroke="#ddd" stroke-dasharray="3,2"></line><line x1="279.5" y1="535.30" x2="279.5" y2="78.40" stroke="#ddd" stroke-dasharray="3,2"></line><line x1="374.6" y1="535.30" x2="374.6" y2="78.40" stroke="#ddd" stroke-dasharray="3,2"></line><line x1="469.7" y1="535.30" x2="469.7" y2="78.40" stroke="#ddd" stroke-dasharray="3,2"></line><line x1="564.8" y1="535.30" x2="564.8" y2="78.40" stroke="#ddd" stroke-dasharray="3,2"></line><line x1="659.8" y1="535.30" x2="659.8" y2="78.40" stroke="#ddd" stroke-dasharray="3,2"></line><line x1="754.9" y1="535.30" x2="754.9" y2="78.40" stroke="#ddd" stroke-dasharray="3,2"></line></g></g><g clip-path="url(#boundsClip-225)"><g class="HeightedLegend clickable"><g class="legendMark"><rect x="778.24" y="71.2" width="56.760000000000005" height="14.4" fill="#fff" opacity="0"></rect><rect x="778.24" y="77.15" width="10" height="2.5" fill="#34983f"></rect><text font-size="14.40" x="793.2" y="82.7" fill="#333"><tspan x="793.24" y="82.72000000000001">Wheat</tspan></text></g><g class="legendMark"><rect x="778.24" y="187.20000000000002" width="55.89600000000001" height="14.4" fill="#fff" opacity="0"></rect><rect x="778.24" y="193.15" width="10" height="2.5" fill="#ca2628"></rect><text font-size="14.40" x="793.2" y="198.7" fill="#333"><tspan x="793.24" y="198.72000000000003">Barley</tspan></text></g><g class="legendMark"><rect x="778.24" y="209.3" width="45.528000000000006" height="14.4" fill="#fff" opacity="0"></rect><rect x="778.24" y="215.25" width="10" height="2.5" fill="#3360a9"></rect><text font-size="14.40" x="793.2" y="220.8" fill="#333"><tspan x="793.24" y="220.82000000000002">Oats</tspan></text></g></g><g class="Lines"><rect x="61" y="78" width="707" height="457" fill="rgba(255,255,255,0)" opacity="0"></rect><g class="key-United-Kingdom_0"><path stroke="#34983f" stroke-linecap="round" d="M61 508L62 510L63 499L64 510L65 512L66 493L67 510L68 500L68 490L69 510L70 509L71 506L72 505L73 515L74 507L75 506L76 507L77 497L78 501L79 509L80 510L81 507L82 507L83 509L84 510L85 504L86 501L87 503L87 497L88 505L89 508L90 504L91 507L92 501L93 515L94 506L95 506L96 506L97 508L98 503L99 511L100 501L101 504L102 501L103 504L104 518L105 521L106 512L107 497L107 499L108 502L109 515L110 511L111 510L112 512L113 499L114 497L115 505L116 511L117 506L118 505L119 509L120 503L121 497L122 502L123 508L124 506L125 499L126 501L126 522L127 505L128 513L129 507L130 512L131 502L132 505L133 515L134 513L135 509L136 522L137 519L138 515L139 501L140 512L141 514L142 509L143 514L144 513L145 508L145 510L146 510L147 510L148 514L149 520L150 504L151 510L152 503L153 516L154 509L155 518L156 510L157 510L158 519L159 507L160 515L161 519L162 501L163 500L164 505L165 515L165 511L166 507L167 504L168 508L169 498L170 510L171 500L172 498L173 512L174 507L175 521L176 505L177 489L178 515L179 496L180 509L181 510L182 509L183 503L184 512L184 518L185 517L186 515L187 507L188 505L189 502L190 514L191 508L192 516L193 513L194 505L195 509L196 514L197 516L198 513L199 515L200 520L201 506L202 518L203 515L203 516L204 525L205 519L206 513L207 508L208 513L209 512L210 517L211 527L212 520L213 515L214 518L215 521L216 520L217 518L218 522L219 517L220 525L221 527L222 523L223 515L223 525L224 525L225 509L226 500L227 522L228 521L229 507L230 521L231 518L232 520L233 517L234 516L235 516L236 512L237 513L238 513L239 525L240 517L241 518L242 518L242 520L243 505L244 498L245 505L246 513L247 520L248 513L249 512L250 507L251 514L252 522L253 525L254 514L255 519L256 515L257 527L258 527L259 517L260 514L261 502L261 513L262 523L263 520L264 518L265 522L266 508L267 514L268 513L269 512L270 518L271 513L272 513L273 513L328 505L329 517L330 486L331 495L332 499L333 514L334 503L335 477L336 488L337 506L338 500L339 497L339 473L340 494L341 488L342 480L343 478L344 485L345 484L346 496L347 506L348 514L349 493L350 516L351 496L352 483L353 520L354 492L355 487L356 500L357 502L358 505L358 488L359 481L360 505L361 516L362 493L363 482L364 501L365 489L366 501L367 499L368 493L369 519L370 511L371 519L372 520L373 511L374 495L375 492L376 503L377 489L377 486L378 491L379 495L380 490L381 503L382 507L383 486L384 464L385 494L386 471L387 489L388 495L389 486L390 502L391 484L392 488L393 499L394 459L395 488L396 501L397 501L397 481L398 479L399 484L400 482L401 450L402 497L403 498L404 498L405 474L406 495L407 481L408 469L409 481L410 472L411 470L412 471L413 464L414 494L415 487L416 495L416 483L417 493L418 497L419 491L420 486L421 507L422 511L423 500L424 490L425 473L426 467L427 460L428 474L429 489L430 502L431 497L432 490L433 495L434 488L435 492L436 488L436 482L437 469L438 463L439 493L440 478L441 481L442 487L443 497L444 494L445 508L446 501L447 469L448 488L449 475L450 486L451 455L452 481L453 474L454 471L455 490L455 469L456 496L457 456L458 478L459 488L460 476L461 484L462 458L463 501L464 448L465 477L466 487L467 481L468 490L469 491L470 472L471 483L472 488L473 493L474 461L474 460L475 481L476 472L477 503L478 513L479 499L480 477L481 481L482 503L483 471L484 494L485 490L486 484L487 469L488 481L489 461L490 466L491 482L492 471L493 481L494 473L494 500L495 489L496 468L497 477L498 488L499 487L500 459L501 457L502 480L503 501L504 443L505 447L506 478L507 471L508 487L509 470L510 454L511 473L512 490L513 492L513 478L514 451L515 485L516 475L517 478L518 495L519 481L520 488L521 485L522 483L523 481L524 461L525 457L526 465L527 469L528 456L529 468L530 465L531 464L532 453L532 489L533 460L534 459L535 450L536 466L537 471L538 485L539 459L540 468L541 453L542 470L543 456L544 469L545 469L546 461L547 441L548 464L549 469L550 463L551 464L552 456L552 483L553 472L554 481L555 474L556 466L557 474L558 460L559 489L560 476L561 469L562 467L563 468L564 481L565 487L566 460L567 458L568 466L569 485L570 462L571 453L571 447L572 470L573 469L574 460L575 485L576 477L577 452L578 481L579 466L580 473L581 447L582 451L583 481L584 439L585 455L586 460L587 462L588 458L589 443L590 458L590 451L591 479L592 465L593 458L594 449L595 450L596 456L597 454L598 437L599 448L600 436L601 445L602 449L603 433L604 450L605 431L606 446L607 412L608 439L609 433L610 414L610 434L611 417L612 438L613 438L614 434L615 455L616 421L617 453L618 434L619 442L620 425L621 437L622 465L623 446L624 438L625 400L626 418L627 443L628 438L629 430L629 409L630 418L631 417L646 426L669 420L688 417L700 399L718 347L719 303L720 327L721 309L722 319L723 331L724 313L725 346L726 320L726 312L727 302L728 309L729 303L730 271L731 304L732 330L733 274L734 256L735 257L736 222L737 224L738 205L739 196L740 124L741 198L742 164L743 216L744 204L745 176L745 164L746 149L747 172L748 145L749 144L750 125L751 101L752 142L753 133L754 107L755 109L756 158L757 109L758 121L759 121L760 111L761 107L762 151L763 94L764 113L764 127L765 123L766 181L767 142L768 78" fill="none" stroke-width="1.5"></path></g><g class="key-United-Kingdom_1"><path stroke="#ca2628" stroke-linecap="round" d="M61 493L62 487L63 490L64 492L65 496L66 472L67 499L68 490L68 485L69 514L70 506L71 487L72 498L73 498L74 495L75 498L76 494L77 487L78 489L79 500L80 506L81 515L82 504L83 499L84 499L85 488L86 498L87 503L87 494L88 490L89 492L90 490L91 487L92 488L93 491L94 497L95 502L96 493L97 488L98 488L99 481L100 490L101 485L102 484L103 490L104 497L105 502L106 503L107 494L107 489L108 486L109 502L110 496L111 485L112 496L113 490L114 489L115 488L116 494L117 487L118 494L119 502L120 494L121 491L122 501L123 496L124 493L125 485L126 478L126 487L127 492L128 493L129 485L130 490L131 484L132 498L133 498L134 488L135 489L136 508L137 506L138 506L139 516L140 502L141 502L142 490L143 499L144 500L145 504L145 498L146 501L147 513L148 502L149 490L150 490L151 498L152 491L153 489L154 509L155 507L156 480L157 487L158 485L159 476L160 490L161 489L162 483L163 480L164 475L165 483L165 486L166 487L167 486L168 503L169 481L170 502L171 487L172 486L173 488L174 492L175 488L176 482L177 469L178 492L179 500L180 496L181 497L182 507L183 491L184 489L184 491L185 497L186 486L187 494L188 494L189 495L190 492L191 501L192 507L193 497L194 490L195 499L196 491L197 512L198 500L199 500L200 506L201 494L202 491L203 491L203 487L204 501L205 497L206 492L207 499L208 496L209 503L210 491L211 494L212 500L213 494L214 506L215 508L216 492L217 476L218 494L219 510L220 504L221 503L222 499L223 499L223 511L224 513L225 485L226 499L227 517L228 494L229 507L230 498L231 512L232 503L233 504L234 506L235 507L236 502L237 503L238 503L239 503L240 507L241 502L242 496L242 495L243 481L244 482L245 515L246 512L247 508L248 503L249 492L250 508L251 503L252 504L253 485L254 515L255 488L256 506L257 518L258 507L259 511L260 487L261 510L261 507L262 505L263 491L264 504L265 513L266 508L267 509L268 506L269 503L270 492L271 495L272 505L273 505L326 508L327 508L328 499L329 491L330 489L331 511L332 501L333 519L334 519L335 477L336 503L337 503L338 505L339 496L339 507L340 488L341 486L342 470L343 501L344 471L345 493L346 510L347 479L348 486L349 479L350 503L351 498L352 499L353 505L354 489L355 490L356 483L357 487L358 485L358 467L359 489L360 491L361 508L362 488L363 478L364 498L365 502L366 510L367 484L368 469L369 503L370 504L371 509L372 520L373 494L374 466L375 499L376 491L377 497L377 471L378 447L379 496L380 510L381 491L382 509L383 479L384 483L385 454L386 480L387 494L388 498L389 476L390 478L391 472L392 474L393 460L394 466L395 430L396 464L397 490L397 452L398 443L399 471L400 461L401 457L402 494L403 506L404 501L405 492L406 490L407 477L408 483L409 480L410 505L411 491L412 482L413 470L414 488L415 456L416 407L416 407L417 464L418 464L419 478L420 485L421 477L422 518L423 504L424 458L425 429L426 473L427 461L428 460L429 459L430 458L431 505L432 480L433 493L434 488L435 462L436 487L436 479L437 452L438 457L439 486L440 469L441 479L442 465L443 488L444 483L445 474L446 495L447 453L448 485L449 476L450 481L451 455L452 489L453 487L454 454L455 473L455 471L456 502L457 489L458 467L459 476L460 464L461 421L462 448L463 481L464 455L465 461L466 480L467 478L468 456L469 495L470 503L471 463L472 418L473 440L474 443L474 464L475 482L476 469L477 482L478 455L479 489L480 474L481 435L482 476L483 476L484 475L485 468L486 462L487 418L488 450L489 409L490 426L491 431L492 466L493 467L494 463L494 482L495 453L496 454L497 450L498 451L499 471L500 445L501 455L502 458L503 442L504 450L505 444L506 444L507 451L508 425L509 457L510 464L511 442L512 443L513 440L513 439L514 417L515 442L516 447L517 459L518 458L519 423L520 417L521 446L522 429L523 457L524 428L525 428L526 421L527 411L528 412L529 461L530 408L531 413L532 479L532 449L533 415L534 416L535 403L536 423L537 398L538 443L539 429L540 427L541 448L542 421L543 428L544 417L545 418L546 418L547 414L548 429L549 410L550 400L551 467L552 449L552 448L553 479L554 453L555 429L556 431L557 436L558 466L559 460L560 426L561 446L562 446L563 428L564 452L565 450L566 421L567 419L568 428L569 425L570 418L571 442L571 441L572 437L573 408L574 416L575 436L576 472L577 399L578 397L579 406L580 422L581 439L582 471L583 432L584 396L585 385L586 442L587 443L588 436L589 440L590 454L590 414L591 436L592 426L593 438L594 399L595 404L596 415L597 432L598 409L599 428L600 427L601 408L602 391L603 395L604 416L605 406L606 419L607 435L608 412L609 430L610 395L610 411L611 410L612 426L613 416L614 419L615 436L616 401L617 405L618 413L619 436L620 440L621 451L622 449L623 431L624 442L625 411L626 398L627 410L628 418L629 437L629 436L630 412L631 449L646 431L669 431L688 428L700 409L718 362L719 342L720 348L721 339L722 336L723 348L724 334L725 352L726 344L726 357L727 336L728 320L729 324L730 316L731 342L732 349L733 302L734 312L735 317L736 299L737 301L738 273L739 287L740 238L741 271L742 257L743 267L744 288L745 275L745 258L746 244L747 233L748 260L749 249L750 230L751 208L752 229L753 254L754 238L755 229L756 250L757 239L758 221L759 229L760 223L761 219L762 234L763 218L764 225L764 232L765 234L766 242L767 224L768 194" fill="none" stroke-width="1.5"></path></g><g class="key-United-Kingdom_2"><path stroke="#3360a9" stroke-linecap="round" d="M61 494L62 496L63 502L64 498L65 498L66 500L67 498L68 494L68 500L69 506L70 500L71 500L72 497L73 498L74 502L75 498L76 504L77 503L78 500L79 502L80 494L81 504L82 504L83 496L84 503L85 502L86 495L87 501L87 497L88 501L89 501L90 501L91 501L92 506L93 505L94 507L95 510L96 500L97 495L98 502L99 499L100 502L101 508L102 507L103 502L104 502L105 506L106 507L107 505L107 502L108 499L109 513L110 504L111 500L112 513L113 504L114 504L115 498L116 508L117 504L118 506L119 509L120 502L121 509L122 503L123 503L124 504L125 506L126 498L126 513L127 510L128 502L129 500L130 506L131 503L132 516L133 507L134 500L135 502L136 519L137 517L138 504L139 520L140 513L141 510L142 506L143 516L144 505L145 507L145 506L146 504L147 509L148 505L149 504L150 509L151 508L152 507L153 507L154 512L155 507L156 500L157 498L158 506L159 503L160 502L161 507L162 504L163 499L164 505L165 509L165 505L166 500L167 504L168 503L169 508L170 503L171 504L172 504L173 503L174 510L175 512L176 504L177 504L178 509L179 512L180 504L181 506L182 515L183 502L184 508L184 503L185 510L186 502L187 512L188 509L189 505L190 510L191 514L192 521L193 515L194 504L195 506L196 514L197 519L198 505L199 513L200 513L201 519L202 509L203 492L203 509L204 517L205 512L206 505L207 499L208 508L209 509L210 515L211 487L212 499L213 508L214 488L215 470L216 487L217 509L218 503L219 518L220 526L221 508L222 502L223 495L223 518L224 515L225 483L226 484L227 488L228 483L229 516L230 452L231 516L232 500L233 500L234 497L235 488L236 514L237 507L238 500L239 516L240 498L241 503L242 509L242 499L243 509L244 529L245 512L246 510L247 507L248 524L249 506L250 509L251 511L252 520L253 520L254 515L255 498L256 509L257 479L258 482L259 504L260 514L261 504L261 500L262 495L263 518L264 502L265 516L266 478L267 502L268 502L269 502L270 506L271 525L272 513L273 513L274 505L275 497L330 495L331 496L332 492L333 522L334 493L335 492L336 483L337 489L338 450L339 516L339 519L340 475L341 509L342 496L343 479L344 494L345 490L346 497L347 511L348 513L349 499L350 498L351 490L352 511L353 485L354 492L355 479L356 499L357 444L358 514L358 420L359 483L360 484L361 485L362 502L363 480L364 508L365 479L366 495L367 514L368 488L369 491L370 512L371 510L372 520L373 507L374 486L375 496L376 496L377 491L377 461L378 487L379 487L380 501L381 484L382 471L383 489L384 444L385 497L386 498L387 488L388 481L389 486L390 504L391 478L392 467L393 476L394 474L395 424L396 470L397 469L397 469L398 446L399 466L400 417L401 465L402 483L403 484L404 484L405 491L406 455L407 477L408 482L409 504L410 493L411 494L412 464L413 474L414 492L415 478L416 476L416 513L417 471L418 484L419 507L420 486L421 482L422 477L423 518L424 511L425 490L426 482L427 469L428 477L429 487L430 501L431 510L432 491L433 492L434 495L435 494L436 494L436 500L437 467L438 484L439 488L440 507L441 498L442 494L443 482L444 501L445 514L446 478L447 491L448 486L449 494L450 485L451 469L452 500L453 516L454 481L455 502L455 507L456 492L457 489L458 508L459 496L460 518L461 472L462 498L463 469L464 484L465 508L466 490L467 501L468 501L469 509L470 505L471 509L472 495L473 498L474 468L474 482L475 488L476 494L477 510L478 505L479 512L480 484L481 506L482 474L483 480L484 493L485 496L486 481L487 502L488 521L489 451L490 471L491 498L492 499L493 473L494 451L494 449L495 472L496 472L497 465L498 459L499 510L500 480L501 489L502 464L503 451L504 482L505 470L506 499L507 469L508 456L509 474L510 497L511 446L512 459L513 433L513 432L514 474L515 436L516 448L517 491L518 455L519 432L520 456L521 436L522 462L523 463L524 429L525 402L526 459L527 415L528 433L529 481L530 481L531 437L532 479L532 465L533 461L534 452L535 462L536 470L537 454L538 477L539 468L540 463L541 465L542 428L543 453L544 454L545 428L546 428L547 441L548 465L549 452L550 454L551 444L552 439L552 468L553 477L554 444L555 434L556 455L557 410L558 492L559 502L560 418L561 364L562 431L563 407L564 457L565 435L566 396L567 401L568 459L569 462L570 460L571 464L571 446L572 461L573 431L574 425L575 450L576 439L577 441L578 435L579 430L580 444L581 446L582 453L583 412L584 418L585 431L586 455L587 429L588 440L589 464L590 476L590 437L591 430L592 428L593 415L594 405L595 397L596 422L597 431L598 407L599 404L600 406L601 410L602 399L603 370L604 393L605 424L606 377L607 415L608 388L609 429L610 432L610 433L611 388L612 390L613 379L614 411L615 452L616 411L617 397L618 397L619 444L620 418L621 421L622 436L623 413L624 426L625 382L626 410L627 415L628 385L629 414L629 441L630 380L631 381L646 447L669 444L688 430L700 420L718 395L719 382L720 386L721 378L722 375L723 372L724 355L725 364L726 353L726 363L727 336L728 324L729 331L730 336L731 354L732 362L733 319L734 327L735 323L736 319L737 306L738 298L739 306L740 276L741 291L742 259L743 293L744 292L745 298L745 271L746 265L747 269L748 257L749 243L750 242L751 208L752 228L753 217L754 222L755 223L756 240L757 217L758 208L759 226L760 224L761 215L762 241L763 226L764 228L764 241L765 236L766 262L767 245L768 217" fill="none" stroke-width="1.5"></path></g></g></g></g><g style="fill: #777;" class="SourcesFooter"><g style="fill: #777;" class="clickable"><text font-size="12.60" x="15.0" y="581.6"><tspan x="15" y="581.58">Source: OWID Long-term crop yields in UK - OWID (2017)</tspan></text></g><text font-size="12.60" x="454.6" y="581.6"><tspan x="454.606" y="581.58"><a target='_blank' style='fill: #777;' href='https://ourworldindata.org/yields-and-land-use-in-agriculture/'>OurWorldInData.org/yields-and-land-use-in-agriculture/</a> • <a style="fill: #777;" href="http://creativecommons.org/licenses/by-sa/4.0/deed.en_US" target="_blank">CC BY-SA</a></tspan></text></g></g></svg>